<mxfile host="65bd71144e">
    <diagram id="cD52tqRjU22jmfu8s6Lm" name="Page-1">
        <mxGraphModel dx="1840" dy="1625" grid="1" gridSize="10" guides="1" tooltips="1" connect="1" arrows="1" fold="1" page="1" pageScale="1" pageWidth="850" pageHeight="1100" math="0" shadow="0">
            <root>
                <mxCell id="0"/>
                <mxCell id="1" parent="0"/>
                <mxCell id="203" style="edgeStyle=none;rounded=0;html=1;exitX=0.5;exitY=1;exitDx=0;exitDy=0;entryX=0.5;entryY=0;entryDx=0;entryDy=0;startArrow=diamondThin;startFill=1;endArrow=none;endFill=0;" parent="1" source="194" target="197" edge="1">
                    <mxGeometry relative="1" as="geometry"/>
                </mxCell>
                <mxCell id="219" value="1" style="edgeLabel;html=1;align=center;verticalAlign=middle;resizable=0;points=[];fontSize=12;fontFamily=Lucida Console;" parent="203" vertex="1" connectable="0">
                    <mxGeometry x="0.233" relative="1" as="geometry">
                        <mxPoint x="10" y="-15" as="offset"/>
                    </mxGeometry>
                </mxCell>
                <mxCell id="220" value="1" style="edgeLabel;html=1;align=center;verticalAlign=middle;resizable=0;points=[];fontSize=12;fontFamily=Lucida Console;" parent="203" vertex="1" connectable="0">
                    <mxGeometry x="0.2968" y="-2" relative="1" as="geometry">
                        <mxPoint x="12" y="4" as="offset"/>
                    </mxGeometry>
                </mxCell>
                <mxCell id="204" style="edgeStyle=none;rounded=0;html=1;exitX=0;exitY=1;exitDx=0;exitDy=0;entryX=1;entryY=0;entryDx=0;entryDy=0;startArrow=none;startFill=0;endArrow=classic;endFill=1;dashed=1;" parent="1" source="194" target="231" edge="1">
                    <mxGeometry relative="1" as="geometry"/>
                </mxCell>
                <mxCell id="252" value="&lt;font face=&quot;Lucida Console&quot; style=&quot;font-size: 12px&quot;&gt;0..*&lt;/font&gt;" style="edgeLabel;html=1;align=center;verticalAlign=middle;resizable=0;points=[];" vertex="1" connectable="0" parent="204">
                    <mxGeometry x="-0.7538" y="2" relative="1" as="geometry">
                        <mxPoint x="-22" y="-16" as="offset"/>
                    </mxGeometry>
                </mxCell>
                <mxCell id="253" value="1" style="edgeLabel;html=1;align=center;verticalAlign=middle;resizable=0;points=[];fontSize=12;fontFamily=Lucida Console;" vertex="1" connectable="0" parent="204">
                    <mxGeometry x="0.6207" relative="1" as="geometry">
                        <mxPoint x="-15" y="3" as="offset"/>
                    </mxGeometry>
                </mxCell>
                <mxCell id="207" style="edgeStyle=none;rounded=0;html=1;exitX=1;exitY=0;exitDx=0;exitDy=0;entryX=0;entryY=1;entryDx=0;entryDy=0;dashed=1;startArrow=none;startFill=0;endArrow=classic;endFill=1;" parent="1" source="194" target="206" edge="1">
                    <mxGeometry relative="1" as="geometry"/>
                </mxCell>
                <mxCell id="227" value="0..*" style="edgeLabel;html=1;align=center;verticalAlign=middle;resizable=0;points=[];fontSize=12;fontFamily=Lucida Console;" parent="207" vertex="1" connectable="0">
                    <mxGeometry x="-0.7973" relative="1" as="geometry">
                        <mxPoint x="22" y="8" as="offset"/>
                    </mxGeometry>
                </mxCell>
                <mxCell id="228" value="0..*" style="edgeLabel;html=1;align=center;verticalAlign=middle;resizable=0;points=[];fontSize=12;fontFamily=Lucida Console;" parent="207" vertex="1" connectable="0">
                    <mxGeometry x="0.5431" relative="1" as="geometry">
                        <mxPoint x="28" y="2" as="offset"/>
                    </mxGeometry>
                </mxCell>
                <mxCell id="194" value="Widget" style="rounded=0;whiteSpace=wrap;html=1;strokeColor=#82b366;fillColor=#d5e8d4;perimeterSpacing=0;fontFamily=Lucida Console;" parent="1" vertex="1">
                    <mxGeometry y="40" width="160" height="80" as="geometry"/>
                </mxCell>
                <mxCell id="201" style="edgeStyle=none;html=1;exitX=1;exitY=0.5;exitDx=0;exitDy=0;entryX=0;entryY=0.5;entryDx=0;entryDy=0;rounded=0;startArrow=diamondThin;startFill=1;endArrow=none;endFill=0;" parent="1" source="195" target="194" edge="1">
                    <mxGeometry relative="1" as="geometry"/>
                </mxCell>
                <mxCell id="229" value="1" style="edgeLabel;html=1;align=center;verticalAlign=middle;resizable=0;points=[];fontSize=12;fontFamily=Lucida Console;" parent="201" vertex="1" connectable="0">
                    <mxGeometry x="-0.25" y="1" relative="1" as="geometry">
                        <mxPoint x="-20" y="-9" as="offset"/>
                    </mxGeometry>
                </mxCell>
                <mxCell id="230" value="0..*" style="edgeLabel;html=1;align=center;verticalAlign=middle;resizable=0;points=[];fontSize=12;fontFamily=Lucida Console;" parent="201" vertex="1" connectable="0">
                    <mxGeometry x="0.3106" relative="1" as="geometry">
                        <mxPoint x="8" y="-10" as="offset"/>
                    </mxGeometry>
                </mxCell>
                <mxCell id="202" style="edgeStyle=none;rounded=0;html=1;exitX=0.5;exitY=1;exitDx=0;exitDy=0;entryX=0.5;entryY=0;entryDx=0;entryDy=0;startArrow=diamondThin;startFill=1;endArrow=none;endFill=0;" parent="1" source="195" target="196" edge="1">
                    <mxGeometry relative="1" as="geometry"/>
                </mxCell>
                <mxCell id="217" value="&lt;font face=&quot;Lucida Console&quot; style=&quot;font-size: 12px&quot;&gt;1&lt;/font&gt;" style="edgeLabel;html=1;align=center;verticalAlign=middle;resizable=0;points=[];" parent="202" vertex="1" connectable="0">
                    <mxGeometry x="0.2117" y="1" relative="1" as="geometry">
                        <mxPoint x="9" y="-14" as="offset"/>
                    </mxGeometry>
                </mxCell>
                <mxCell id="218" value="1" style="edgeLabel;html=1;align=center;verticalAlign=middle;resizable=0;points=[];fontSize=12;fontFamily=Lucida Console;" parent="202" vertex="1" connectable="0">
                    <mxGeometry x="0.2755" y="2" relative="1" as="geometry">
                        <mxPoint x="8" y="4" as="offset"/>
                    </mxGeometry>
                </mxCell>
                <mxCell id="208" style="edgeStyle=none;rounded=0;html=1;exitX=0.5;exitY=0;exitDx=0;exitDy=0;entryX=0.5;entryY=1;entryDx=0;entryDy=0;dashed=1;startArrow=none;startFill=0;endArrow=classic;endFill=1;" parent="1" source="195" target="205" edge="1">
                    <mxGeometry relative="1" as="geometry"/>
                </mxCell>
                <mxCell id="225" value="0..*" style="edgeLabel;html=1;align=center;verticalAlign=middle;resizable=0;points=[];fontSize=12;fontFamily=Lucida Console;" parent="208" vertex="1" connectable="0">
                    <mxGeometry x="-0.808" relative="1" as="geometry">
                        <mxPoint x="20" y="-2" as="offset"/>
                    </mxGeometry>
                </mxCell>
                <mxCell id="226" value="1" style="edgeLabel;html=1;align=center;verticalAlign=middle;resizable=0;points=[];fontSize=12;fontFamily=Lucida Console;" parent="208" vertex="1" connectable="0">
                    <mxGeometry x="0.6814" y="-1" relative="1" as="geometry">
                        <mxPoint x="9" y="-3" as="offset"/>
                    </mxGeometry>
                </mxCell>
                <mxCell id="246" style="edgeStyle=none;rounded=0;html=1;exitX=0;exitY=1;exitDx=0;exitDy=0;entryX=1;entryY=0;entryDx=0;entryDy=0;fontFamily=Lucida Console;fontSize=12;startArrow=block;startFill=0;endArrow=none;endFill=0;dashed=1;" parent="1" source="210" target="195" edge="1">
                    <mxGeometry relative="1" as="geometry"/>
                </mxCell>
                <mxCell id="195" value="Panel" style="rounded=0;whiteSpace=wrap;html=1;strokeColor=#82b366;fillColor=#d5e8d4;perimeterSpacing=0;fontFamily=Lucida Console;" parent="1" vertex="1">
                    <mxGeometry x="-240" y="40" width="160" height="80" as="geometry"/>
                </mxCell>
                <mxCell id="232" style="edgeStyle=none;rounded=0;html=1;exitX=0.5;exitY=1;exitDx=0;exitDy=0;entryX=0.5;entryY=0;entryDx=0;entryDy=0;fontFamily=Lucida Console;fontSize=12;startArrow=diamondThin;startFill=1;endArrow=none;endFill=0;" parent="1" source="196" target="231" edge="1">
                    <mxGeometry relative="1" as="geometry"/>
                </mxCell>
                <mxCell id="234" value="0..1" style="edgeLabel;html=1;align=center;verticalAlign=middle;resizable=0;points=[];fontSize=12;fontFamily=Lucida Console;" parent="232" vertex="1" connectable="0">
                    <mxGeometry x="0.3965" y="-2" relative="1" as="geometry">
                        <mxPoint x="22" y="-18" as="offset"/>
                    </mxGeometry>
                </mxCell>
                <mxCell id="235" value="1" style="edgeLabel;html=1;align=center;verticalAlign=middle;resizable=0;points=[];fontSize=12;fontFamily=Lucida Console;" parent="232" vertex="1" connectable="0">
                    <mxGeometry x="0.6246" relative="1" as="geometry">
                        <mxPoint x="10" as="offset"/>
                    </mxGeometry>
                </mxCell>
                <mxCell id="196" value="Layout" style="rounded=0;whiteSpace=wrap;html=1;strokeColor=#6c8ebf;fillColor=#dae8fc;perimeterSpacing=0;fontFamily=Lucida Console;" parent="1" vertex="1">
                    <mxGeometry x="-200" y="160" width="80" height="40" as="geometry"/>
                </mxCell>
                <mxCell id="197" value="Layout" style="rounded=0;whiteSpace=wrap;html=1;strokeColor=#6c8ebf;fillColor=#dae8fc;perimeterSpacing=0;fontFamily=Lucida Console;" parent="1" vertex="1">
                    <mxGeometry x="40" y="160" width="80" height="40" as="geometry"/>
                </mxCell>
                <mxCell id="199" value="Stylesheet" style="rounded=0;whiteSpace=wrap;html=1;strokeColor=#9673a6;fillColor=#e1d5e7;perimeterSpacing=0;fontFamily=Lucida Console;" parent="1" vertex="1">
                    <mxGeometry x="240" y="240" width="80" height="40" as="geometry"/>
                </mxCell>
                <mxCell id="211" style="edgeStyle=none;rounded=0;html=1;exitX=1;exitY=0.5;exitDx=0;exitDy=0;entryX=0;entryY=0.5;entryDx=0;entryDy=0;startArrow=diamondThin;startFill=0;endArrow=none;endFill=0;" parent="1" source="205" target="210" edge="1">
                    <mxGeometry relative="1" as="geometry"/>
                </mxCell>
                <mxCell id="247" value="1" style="edgeLabel;html=1;align=center;verticalAlign=middle;resizable=0;points=[];fontSize=12;fontFamily=Lucida Console;" parent="211" vertex="1" connectable="0">
                    <mxGeometry x="-0.5679" y="-1" relative="1" as="geometry">
                        <mxPoint x="-7" y="-11" as="offset"/>
                    </mxGeometry>
                </mxCell>
                <mxCell id="248" value="0..*" style="edgeLabel;html=1;align=center;verticalAlign=middle;resizable=0;points=[];fontSize=12;fontFamily=Lucida Console;" parent="211" vertex="1" connectable="0">
                    <mxGeometry x="0.4679" y="1" relative="1" as="geometry">
                        <mxPoint x="1" y="-9" as="offset"/>
                    </mxGeometry>
                </mxCell>
                <mxCell id="205" value="InputContext" style="rounded=0;whiteSpace=wrap;html=1;strokeColor=#d79b00;fillColor=#ffe6cc;perimeterSpacing=0;fontFamily=Lucida Console;" parent="1" vertex="1">
                    <mxGeometry x="-240" y="-120" width="160" height="80" as="geometry"/>
                </mxCell>
                <mxCell id="206" value="DataSource" style="rounded=0;whiteSpace=wrap;html=1;strokeColor=#b85450;fillColor=#f8cecc;perimeterSpacing=0;fontFamily=Lucida Console;" parent="1" vertex="1">
                    <mxGeometry x="240" y="-120" width="160" height="80" as="geometry"/>
                </mxCell>
                <mxCell id="245" style="edgeStyle=none;rounded=0;html=1;exitX=0.5;exitY=1;exitDx=0;exitDy=0;entryX=0.5;entryY=0;entryDx=0;entryDy=0;fontFamily=Lucida Console;fontSize=12;startArrow=block;startFill=0;endArrow=none;endFill=0;dashed=1;" parent="1" source="210" target="194" edge="1">
                    <mxGeometry relative="1" as="geometry"/>
                </mxCell>
                <mxCell id="210" value="InputElement" style="rounded=0;whiteSpace=wrap;html=1;strokeColor=#d79b00;fillColor=#ffe6cc;perimeterSpacing=0;fontFamily=Lucida Console;" parent="1" vertex="1">
                    <mxGeometry y="-120" width="160" height="80" as="geometry"/>
                </mxCell>
                <mxCell id="212" style="edgeStyle=none;rounded=0;html=1;exitX=1;exitY=1;exitDx=0;exitDy=0;entryX=0;entryY=0;entryDx=0;entryDy=0;dashed=1;startArrow=none;startFill=0;endArrow=classic;endFill=1;" parent="1" source="194" target="199" edge="1">
                    <mxGeometry relative="1" as="geometry">
                        <mxPoint x="90" y="50.00000000000023" as="sourcePoint"/>
                        <mxPoint x="90" y="-29.999999999999773" as="targetPoint"/>
                    </mxGeometry>
                </mxCell>
                <mxCell id="221" value="0..*" style="edgeLabel;html=1;align=center;verticalAlign=middle;resizable=0;points=[];fontSize=12;fontFamily=Lucida Console;" parent="212" vertex="1" connectable="0">
                    <mxGeometry x="-0.2521" y="1" relative="1" as="geometry">
                        <mxPoint x="-1" y="-44" as="offset"/>
                    </mxGeometry>
                </mxCell>
                <mxCell id="222" value="1" style="edgeLabel;html=1;align=center;verticalAlign=middle;resizable=0;points=[];fontSize=12;fontFamily=Lucida Console;labelBackgroundColor=none;" parent="212" vertex="1" connectable="0">
                    <mxGeometry x="0.491" y="1" relative="1" as="geometry">
                        <mxPoint x="20" y="11" as="offset"/>
                    </mxGeometry>
                </mxCell>
                <mxCell id="213" value="Stylesheet" style="rounded=0;whiteSpace=wrap;html=1;strokeColor=#9673a6;fillColor=#e1d5e7;perimeterSpacing=0;fontFamily=Lucida Console;" parent="1" vertex="1">
                    <mxGeometry x="-400" y="60" width="80" height="40" as="geometry"/>
                </mxCell>
                <mxCell id="216" style="edgeStyle=none;rounded=0;html=1;entryX=1;entryY=0.5;entryDx=0;entryDy=0;dashed=1;startArrow=none;startFill=0;endArrow=classic;endFill=1;exitX=0;exitY=0.5;exitDx=0;exitDy=0;" parent="1" source="195" target="213" edge="1">
                    <mxGeometry relative="1" as="geometry">
                        <mxPoint x="-260" y="120" as="sourcePoint"/>
                        <mxPoint x="209.99999999999977" y="90.00000000000023" as="targetPoint"/>
                    </mxGeometry>
                </mxCell>
                <mxCell id="223" value="0..*" style="edgeLabel;html=1;align=center;verticalAlign=middle;resizable=0;points=[];fontSize=12;fontFamily=Lucida Console;" parent="216" vertex="1" connectable="0">
                    <mxGeometry x="-0.2707" relative="1" as="geometry">
                        <mxPoint x="9" y="-10" as="offset"/>
                    </mxGeometry>
                </mxCell>
                <mxCell id="224" value="1" style="edgeLabel;html=1;align=center;verticalAlign=middle;resizable=0;points=[];fontSize=12;fontFamily=Lucida Console;labelBackgroundColor=none;" parent="216" vertex="1" connectable="0">
                    <mxGeometry x="0.4033" y="-1" relative="1" as="geometry">
                        <mxPoint x="-14" y="-9" as="offset"/>
                    </mxGeometry>
                </mxCell>
                <mxCell id="233" style="edgeStyle=none;html=1;exitX=0.25;exitY=1;exitDx=0;exitDy=0;fontFamily=Lucida Console;fontSize=12;startArrow=diamondThin;startFill=1;endArrow=none;endFill=0;entryX=0.75;entryY=1;entryDx=0;entryDy=0;rounded=0;" parent="1" source="231" target="231" edge="1">
                    <mxGeometry relative="1" as="geometry">
                        <mxPoint x="-170" y="320" as="targetPoint"/>
                        <Array as="points">
                            <mxPoint x="-200" y="300"/>
                            <mxPoint x="-120" y="300"/>
                        </Array>
                    </mxGeometry>
                </mxCell>
                <mxCell id="236" value="0..1" style="edgeLabel;html=1;align=center;verticalAlign=middle;resizable=0;points=[];fontSize=12;fontFamily=Lucida Console;" parent="233" vertex="1" connectable="0">
                    <mxGeometry x="-0.7361" relative="1" as="geometry">
                        <mxPoint x="-20" y="-3" as="offset"/>
                    </mxGeometry>
                </mxCell>
                <mxCell id="237" value="0..*" style="edgeLabel;html=1;align=center;verticalAlign=middle;resizable=0;points=[];fontSize=12;fontFamily=Lucida Console;" parent="233" vertex="1" connectable="0">
                    <mxGeometry x="0.694" relative="1" as="geometry">
                        <mxPoint x="20" y="-5" as="offset"/>
                    </mxGeometry>
                </mxCell>
                <mxCell id="231" value="LayoutElement" style="rounded=0;whiteSpace=wrap;html=1;strokeColor=#6c8ebf;fillColor=#dae8fc;perimeterSpacing=0;fontFamily=Lucida Console;" parent="1" vertex="1">
                    <mxGeometry x="-240" y="240" width="160" height="40" as="geometry"/>
                </mxCell>
                <mxCell id="238" style="edgeStyle=none;rounded=0;html=1;entryX=0.5;entryY=0;entryDx=0;entryDy=0;fontFamily=Lucida Console;fontSize=12;startArrow=diamondThin;startFill=1;endArrow=none;endFill=0;exitX=0.5;exitY=1;exitDx=0;exitDy=0;" parent="1" source="197" target="244" edge="1">
                    <mxGeometry relative="1" as="geometry">
                        <mxPoint x="60" y="210" as="sourcePoint"/>
                    </mxGeometry>
                </mxCell>
                <mxCell id="239" value="0..1" style="edgeLabel;html=1;align=center;verticalAlign=middle;resizable=0;points=[];fontSize=12;fontFamily=Lucida Console;" parent="238" vertex="1" connectable="0">
                    <mxGeometry x="0.3965" y="-2" relative="1" as="geometry">
                        <mxPoint x="22" y="-18" as="offset"/>
                    </mxGeometry>
                </mxCell>
                <mxCell id="240" value="1" style="edgeLabel;html=1;align=center;verticalAlign=middle;resizable=0;points=[];fontSize=12;fontFamily=Lucida Console;" parent="238" vertex="1" connectable="0">
                    <mxGeometry x="0.6246" relative="1" as="geometry">
                        <mxPoint x="10" as="offset"/>
                    </mxGeometry>
                </mxCell>
                <mxCell id="241" style="edgeStyle=none;html=1;exitX=0.25;exitY=1;exitDx=0;exitDy=0;fontFamily=Lucida Console;fontSize=12;startArrow=diamondThin;startFill=1;endArrow=none;endFill=0;entryX=0.75;entryY=1;entryDx=0;entryDy=0;rounded=0;" parent="1" source="244" target="244" edge="1">
                    <mxGeometry relative="1" as="geometry">
                        <mxPoint x="70" y="320" as="targetPoint"/>
                        <Array as="points">
                            <mxPoint x="40" y="300"/>
                            <mxPoint x="120" y="300"/>
                        </Array>
                    </mxGeometry>
                </mxCell>
                <mxCell id="242" value="0..1" style="edgeLabel;html=1;align=center;verticalAlign=middle;resizable=0;points=[];fontSize=12;fontFamily=Lucida Console;" parent="241" vertex="1" connectable="0">
                    <mxGeometry x="-0.7361" relative="1" as="geometry">
                        <mxPoint x="-20" y="-3" as="offset"/>
                    </mxGeometry>
                </mxCell>
                <mxCell id="243" value="0..*" style="edgeLabel;html=1;align=center;verticalAlign=middle;resizable=0;points=[];fontSize=12;fontFamily=Lucida Console;" parent="241" vertex="1" connectable="0">
                    <mxGeometry x="0.694" relative="1" as="geometry">
                        <mxPoint x="20" y="-5" as="offset"/>
                    </mxGeometry>
                </mxCell>
                <mxCell id="244" value="LayoutElement" style="rounded=0;whiteSpace=wrap;html=1;strokeColor=#6c8ebf;fillColor=#dae8fc;perimeterSpacing=0;fontFamily=Lucida Console;" parent="1" vertex="1">
                    <mxGeometry y="240" width="160" height="40" as="geometry"/>
                </mxCell>
                <mxCell id="250" style="edgeStyle=none;rounded=0;html=1;fontFamily=Lucida Console;fontSize=12;startArrow=none;startFill=0;endArrow=diamondThin;endFill=0;entryX=0.5;entryY=1;entryDx=0;entryDy=0;exitX=0.5;exitY=0;exitDx=0;exitDy=0;" parent="1" source="249" target="206" edge="1">
                    <mxGeometry relative="1" as="geometry">
                        <mxPoint x="420" y="-60" as="sourcePoint"/>
                        <mxPoint x="440" y="-60" as="targetPoint"/>
                    </mxGeometry>
                </mxCell>
                <mxCell id="249" value="DataListener" style="rounded=0;whiteSpace=wrap;html=1;strokeColor=#b85450;fillColor=#f8cecc;perimeterSpacing=0;fontFamily=Lucida Console;" parent="1" vertex="1">
                    <mxGeometry x="240" y="40" width="160" height="80" as="geometry"/>
                </mxCell>
                <mxCell id="251" style="edgeStyle=none;rounded=0;html=1;exitX=0;exitY=0.5;exitDx=0;exitDy=0;entryX=1;entryY=0.5;entryDx=0;entryDy=0;fontFamily=Lucida Console;fontSize=12;startArrow=block;startFill=0;endArrow=none;endFill=0;dashed=1;" parent="1" source="249" target="194" edge="1">
                    <mxGeometry relative="1" as="geometry">
                        <mxPoint x="89.99999999999977" y="-30" as="sourcePoint"/>
                        <mxPoint x="89.99999999999977" y="50" as="targetPoint"/>
                    </mxGeometry>
                </mxCell>
            </root>
        </mxGraphModel>
    </diagram>
</mxfile>